<svg xmlns="http://www.w3.org/2000/svg" viewBox="0 0 356.36 305.45"><defs><style>.cls-1{fill:#fff;}</style></defs><g id="Capa_2" data-name="Capa 2"><g id="Capa_1-2" data-name="Capa 1"><path class="cls-1" d="M.44,158.27,0,148.91c1.54-7.71,6.29-13.35,11.72-18.76Q72.73,69.37,133.56,8.4C143-1,156.46-2.68,166.5,4.2a25.56,25.56,0,0,1,5.29,37.28c-1.32,1.61-2.78,3.12-4.25,4.59-18.36,18.38-36.68,36.81-55.14,55.09C103.47,110,95.46,120,83.84,126l.35,1.5q121.79,0,243.57,0c8.1,0,15.45,1.66,21.15,7.75,7.11,7.59,9.42,16.54,5.65,26.3S343.33,176.78,333,178.18a37,37,0,0,1-4.82.28H80.39c-.2.53,0,.72.35.86,9.14,3.62,16.4,9.78,23.23,16.69q32,32.42,64.33,64.6c8,7.94,11.14,17.06,8,28.11-4.41,15.61-25,22.06-38.6,11.68a54.26,54.26,0,0,1-5.17-4.65Q72.25,235.48,11.93,175.23C6.92,170.24,2.45,165.06.44,158.27Z"/></g></g></svg>