<svg xmlns="http://www.w3.org/2000/svg" viewBox="0 0 157 157"><defs><style>.cls-1{fill:none;stroke:#5ab991;stroke-width:3px;}</style></defs><g id="Capa_2" data-name="Capa 2"><g id="Capa_1-2" data-name="Capa 1"><rect class="cls-1" x="1.5" y="1.5" width="154" height="154" rx="13.5"/><path class="cls-1" d="M46.43,82.24v26.89s-1.78,10.44,11.33,17.11H90.43S99.26,125,102.85,118s7.8-26.23,7.8-26.23a13.86,13.86,0,0,0-5.33-9.55c-5.11-4-3.44-3.54-3.44-3.54L104,35.79a7,7,0,0,0-5.92-4.59c-4.69-.52-5.41,3.19-5.41,3.19L89,71.79,83.51,34.91S81.73,29.25,77,31.15s-4.77,5.39-4.77,5.39l1.51,23.92S66,55.35,61.81,63.28c0,0-8.74-2.15-10.89,3.26,0,0-1,5.4-.67,7.77A13.13,13.13,0,0,0,46.43,82.24Z"/><path class="cls-1" d="M50.28,74.31v9.82a6.7,6.7,0,0,0,5.37,4.44c4.22.59,6.19-1.92,6.19-1.92V63.28"/><path class="cls-1" d="M61.84,86.65s1.7,5.85,5.66,5.81a7.87,7.87,0,0,0,6-2.91l.22-29.09"/><path class="cls-1" d="M72.25,112.29s1.51-13.94,15.4-17.83c0,0,2.89-2.33,2.28-4.61s-12.5-8.94-12.5-8.94a6.37,6.37,0,0,1-1-9l.09-.11c3.84-5.39,8.73-2,8.73-2l16.67,9.39"/></g></g></svg>