<svg xmlns="http://www.w3.org/2000/svg" viewBox="0 0 155 155"><defs><style>.cls-1,.cls-2{fill:#58b890;stroke:#fff;}.cls-2{stroke-width:2px;}</style></defs><g id="Capa_2" data-name="Capa 2"><g id="Capa_1-2" data-name="Capa 1"><rect class="cls-1" x="0.5" y="0.5" width="154" height="154" rx="13.5"/><path class="cls-2" d="M45.45,81.24v26.89s-1.78,10.44,11.33,17.11H89.45S98.28,124,101.86,117s7.81-26.23,7.81-26.23a13.86,13.86,0,0,0-5.33-9.55c-5.12-4-3.44-3.54-3.44-3.54L103,34.79a7,7,0,0,0-5.92-4.59c-4.69-.52-5.41,3.19-5.41,3.19l-3.62,37.4L82.56,33.91S80.78,28.25,76,30.15s-4.77,5.39-4.77,5.39l1.51,23.92S65,54.35,60.85,62.28c0,0-8.74-2.15-10.89,3.26,0,0-1,5.4-.66,7.77C49.28,73.31,46.24,75.76,45.45,81.24Z"/><path class="cls-2" d="M49.28,73.31v9.82a6.7,6.7,0,0,0,5.37,4.44c4.22.59,6.18-1.92,6.18-1.92V62.28"/><path class="cls-2" d="M60.83,85.65s1.71,5.85,5.67,5.81a7.9,7.9,0,0,0,6-2.91l.22-29.09"/><path class="cls-2" d="M71.25,111.29s1.51-13.94,15.4-17.83c0,0,2.89-2.33,2.28-4.61s-12.5-8.94-12.5-8.94A6.37,6.37,0,0,1,75.34,71l.09-.12c3.84-5.39,8.72-2,8.72-2l16.68,9.39"/></g></g></svg>